<?xml version="1.0" standalone="no"?><!DOCTYPE svg PUBLIC "-//W3C//DTD SVG 1.1//EN" "http://www.w3.org/Graphics/SVG/1.1/DTD/svg11.dtd"><svg class="icon" width="200px" height="200.00px" viewBox="0 0 1024 1024" version="1.1" xmlns="http://www.w3.org/2000/svg"><path fill="#fff" d="M146.134 525.905l403.415-403.416c17.387-17.387 17.387-45.577 0-62.964s-45.577-17.387-62.964 0l-464.586 464.586 464.586 464.586c17.387 17.388 45.575 17.388 62.964 0 17.387-17.387 17.387-45.577 0-62.964l-403.415-399.829zM592.073 525.183l402.693-402.693c17.387-17.387 17.387-45.577 0-62.964s-45.577-17.387-62.964 0l-464.584 464.585 464.585 464.586c17.387 17.388 45.576 17.388 62.964 0 17.387-17.387 17.387-45.577 0-62.964l-402.694-400.551z" /></svg>