<?xml version="1.0" standalone="no"?><!DOCTYPE svg PUBLIC "-//W3C//DTD SVG 1.1//EN" "http://www.w3.org/Graphics/SVG/1.1/DTD/svg11.dtd"><svg t="1541561825863" class="icon" style="" viewBox="0 0 1024 1024" version="1.1" xmlns="http://www.w3.org/2000/svg" p-id="3532" xmlns:xlink="http://www.w3.org/1999/xlink" width="200" height="200"><defs><style type="text/css"></style></defs><path d="M469.376 265.536a34.752 34.752 0 0 0-49.152 0L316.864 368.96l-39.872-39.808a31.104 31.104 0 0 0-43.904 43.904l65.856 65.856a31.168 31.168 0 0 0 34.112 6.528 33.6 33.6 0 0 0 13.568-8.064l122.752-122.752a34.816 34.816 0 0 0 0-49.088zM768 416a32 32 0 0 0 0-64H576a32 32 0 0 0 0 64h192zM256 640a96 96 0 1 0 192.064-0.064A96 96 0 0 0 256 640z m128 0a32 32 0 1 1-64.128-0.128A32 32 0 0 1 384 640z" fill="" p-id="3533"></path><path d="M832 64H192a128 128 0 0 0-128 128v640a128 128 0 0 0 128 128h352v-64H192a64 64 0 0 1-64-64V192a64 64 0 0 1 64-64h640a64 64 0 0 1 64 64v224h64V192a128 128 0 0 0-128-128z" fill="" p-id="3534"></path><path d="M768 768a192 192 0 0 0-192 192h64a128 128 0 0 1 256 0h64a192 192 0 0 0-192-192zM640 576a128 128 0 1 0 256.064-0.064A128 128 0 0 0 640 576z m191.488 0a63.488 63.488 0 1 1-126.976 0 63.488 63.488 0 0 1 126.976 0z" fill="" p-id="3535"></path></svg>