<?xml version="1.0" standalone="no"?><!DOCTYPE svg PUBLIC "-//W3C//DTD SVG 1.1//EN" "http://www.w3.org/Graphics/SVG/1.1/DTD/svg11.dtd"><svg t="1546504279339" class="icon" style="" viewBox="0 0 1024 1024" version="1.1" xmlns="http://www.w3.org/2000/svg" p-id="2259" xmlns:xlink="http://www.w3.org/1999/xlink" width="200" height="200"><defs><style type="text/css"></style></defs><path d="M679.2 839.4h-54.5c-11 0-20-9-20-20v-77.7h94.5v77.7c0 11-9 20-20 20z" fill="#F9C0C0" p-id="2260"></path><path d="M522.8 266.4h-31.5c-5.9 0-10.8-4.8-10.8-10.8v-20.3c0-1.5-1.2-2.8-2.8-2.8h-20.3c-5.9 0-10.8-4.8-10.8-10.8v-31.5c0-5.9 4.8-10.8 10.8-10.8h0.4v8h-0.4c-1.5 0-2.8 1.3-2.8 2.8v31.5c0 1.5 1.3 2.8 2.8 2.8h20.3c5.9 0 10.8 4.8 10.8 10.8v20.3c0 1.5 1.3 2.8 2.8 2.8h31.5c1.5 0 2.8-1.3 2.8-2.8v-20.3c0-5.9 4.8-10.8 10.8-10.8h20.3c1.5 0 2.8-1.3 2.8-2.8v-31.5c0-1.5-1.2-2.8-2.8-2.8h-20.3c-5.9 0-10.8-4.8-10.8-10.8v-20.3c0-1.5-1.2-2.8-2.8-2.8h-31.5c-1.5 0-2.8 1.3-2.8 2.8v20.3c0 5.9-4.8 10.8-10.8 10.8h-5.1v-8h5.1c1.5 0 2.8-1.2 2.8-2.8v-20.3c0-5.9 4.8-10.8 10.8-10.8h31.5c5.9 0 10.8 4.8 10.8 10.8v20.3c0 1.5 1.2 2.8 2.8 2.8h20.3c5.9 0 10.8 4.8 10.8 10.8v31.5c0 5.9-4.8 10.8-10.8 10.8h-20.3c-1.5 0-2.8 1.2-2.8 2.8v20.3c0 6-4.9 10.8-10.8 10.8z" fill="#CE0202" p-id="2261"></path><path d="M510.3 581.6c48.1 0 92.1 9.7 130.9 28.9 36.6 18.1 68.4 44.6 94.5 78.7 25.3 33.1 44.9 72.9 58.2 118.3 11.9 40.7 18.5 84.9 19.7 131.6H207c1.2-46.7 7.8-90.9 19.7-131.6 13.3-45.3 32.9-85.1 58.2-118.3 26.1-34.1 57.9-60.6 94.5-78.7 38.7-19.2 82.7-28.9 130.9-28.9m0-15C302.2 566.6 191.8 740 191.8 954h636.9c0-214-110.4-387.4-318.4-387.4z" fill="#999999" p-id="2262"></path><path d="M513.4 823.2c-12.2 0-22-9.9-22-22 0-12.2 9.9-22 22-22 12.2 0 22 9.9 22 22 0.1 12.1-9.8 22-22 22z m0-36.1c-7.7 0-14 6.3-14 14s6.3 14 14 14 14-6.3 14-14c0.1-7.7-6.2-14-14-14zM513.4 911.3c-12.2 0-22-9.9-22-22s9.9-22 22-22c12.2 0 22 9.9 22 22s-9.8 22-22 22z m0-36.1c-7.7 0-14 6.3-14 14s6.3 14 14 14 14-6.3 14-14-6.2-14-14-14zM516.5 544.9h-18.9c-42.8 0-83.2-16.8-113.7-47.3s-47.3-70.9-47.3-113.7v-66.3h333.3c4.2 0 7.6 3.4 7.6 7.6v58.7c0 42.8-16.8 83.2-47.3 113.7-30.5 30.5-70.9 47.3-113.7 47.3zM351.6 332.6v51.3c0 38.8 15.2 75.4 42.9 103.1 27.7 27.7 64.3 42.9 103.1 42.9h18.9c38.8 0 75.4-15.2 103.1-42.9 27.7-27.7 42.9-64.3 42.9-103.1v-51.3H351.6z" fill="#999999" p-id="2263"></path><path d="M677.5 332.6H336.6V134.7c0-13.3 7.9-25.5 20-31C386.9 90 447 67 510.3 67c63.1 0 119.8 22.8 148 36.5 11.7 5.6 19.2 17.7 19.2 30.7v198.4z m-325.9-15h310.9V134.2c0-7.3-4.2-14-10.8-17.1-27-13.1-81.4-35-141.5-35-60.5 0-118.3 22.1-147.4 35.3-6.8 3.1-11.2 9.9-11.2 17.4v182.8zM513.4 692.6c-49 0-88.9-39.9-88.9-88.9v-20.2h8v20.2c0 44.6 36.3 80.9 80.9 80.9s80.9-36.3 80.9-80.9v-17h8v17c0.1 49-39.8 88.9-88.9 88.9zM679.2 840.2H613c-13.2 0-24-10.8-24-24V726h114.2v90.2c0 13.2-10.8 24-24 24zM597 734v82.2c0 8.8 7.2 16 16 16h66.2c8.8 0 16-7.2 16-16V734H597z" fill="#999999" p-id="2264"></path><path d="M650.1 731.1h-8v-19.6c0-7.5-6.1-13.5-13.5-13.5s-13.5 6.1-13.5 13.5h-8c0-11.9 9.7-21.5 21.5-21.5s21.5 9.7 21.5 21.5v19.6z" fill="#999999" p-id="2265"></path><path d="M562.3 763.7c-29.1 0-52.8-23.7-52.8-52.8v-22.3h8v22.3c0 24.7 20.1 44.8 44.8 44.8s44.8-20.1 44.8-44.8h8c0 29.1-23.7 52.8-52.8 52.8z" fill="#999999" p-id="2266"></path></svg>