<?xml version="1.0" standalone="no"?><!DOCTYPE svg PUBLIC "-//W3C//DTD SVG 1.1//EN" "http://www.w3.org/Graphics/SVG/1.1/DTD/svg11.dtd"><svg t="1541561659975" class="icon" style="" viewBox="0 0 1024 1024" version="1.1" xmlns="http://www.w3.org/2000/svg" p-id="2294" xmlns:xlink="http://www.w3.org/1999/xlink" width="200" height="200"><defs><style type="text/css"></style></defs><path d="M746.254222 833.336889c-10.908444 0-19.697778-2.972444-25.386666-8.590222a14.250667 14.250667 0 0 1-4.238223-10.126223v-33.92h-120.917333a14.222222 14.222222 0 0 1-11.107556-5.333333l-105.415111-131.797333a14.222222 14.222222 0 0 1 0.028445-17.806222l70.542222-87.480889c2.702222-3.342222 6.769778-5.290667 11.064889-5.290667h0.028444a14.222222 14.222222 0 0 1 11.079111 5.333333l84.650667 105.827556h60.032v-33.237333c0-3.797333 1.521778-7.438222 4.209778-10.112 8.391111-8.291556 22.997333-11.264 33.863111-11.264 8.007111 0 18.986667 1.479111 26.609778 8.376888l114.076444 86.229334c0.512 0.384 0.995556 0.810667 1.450667 1.251555 6.613333 6.570667 10.254222 15.288889 10.24 24.576 0 9.258667-3.655111 17.976889-10.254222 24.519111-0.455111 0.440889-0.924444 0.853333-1.436445 1.237334l-114.048 86.200889c-9.159111 8.405333-24.490667 11.406222-35.072 11.406222z m-1.180444-28.458667l1.180444 0.014222c7.552 0 14.364444-2.574222 15.900445-3.953777 0.298667-0.284444 1.095111-0.981333 1.422222-1.237334l113.706667-85.944889a6.001778 6.001778 0 0 0-0.014223-7.68l-113.706666-85.930666a14.947556 14.947556 0 0 1-1.436445-1.237334c-0.156444 0-2.730667-0.924444-7.424-0.924444a36.408889 36.408889 0 0 0-9.642666 1.28v39.111111a14.222222 14.222222 0 0 1-14.222223 14.222222h-81.080889a14.222222 14.222222 0 0 1-11.107555-5.333333l-77.866667-97.336889-52.252444 64.810667 93.994666 117.532444h128.298667a14.222222 14.222222 0 0 1 14.222222 14.222222v38.385778z m-419.640889-24.163555H217.315556c-37.646222 0-68.280889-30.634667-68.280889-68.280889s30.634667-68.280889 68.280889-68.280889h47.232l320.056888-400.085333a14.222222 14.222222 0 0 1 11.107556-5.333334h120.917333v-35.612444c0-3.811556 1.521778-7.452444 4.238223-10.126222 5.475556-5.390222 13.795556-8.248889 24.049777-8.248889 11.335111 0 27.335111 3.797333 36.423111 12.103111l114.062223 86.229333c0.512 0.384 0.981333 0.796444 1.436444 1.237333a34.275556 34.275556 0 0 1 10.254222 24.533334 34.417778 34.417778 0 0 1-10.24 24.590222 13.468444 13.468444 0 0 1-1.450666 1.251556l-114.104889 86.243555c-5.731556 5.148444-14.279111 7.864889-24.817778 7.864889-10.808889 0-26.624-3.128889-35.598222-11.946667a14.236444 14.236444 0 0 1-4.252445-10.140444v-31.402667h-60.032L336.540444 775.367111c-2.702222 3.370667-6.784 5.347556-11.107555 5.347556z m-108.117333-108.117334c-21.959111 0-39.836444 17.863111-39.836445 39.836445s17.863111 39.836444 39.836445 39.836444h101.290666l320.056889-400.085333a14.222222 14.222222 0 0 1 11.107556-5.333333h81.080889a14.222222 14.222222 0 0 1 14.222222 14.222222v37.461333c2.958222 0.967111 7.054222 1.806222 11.406222 1.806222 3.768889 0 5.788444-0.654222 6.243556-0.910222l114.545777-86.698667a6.144 6.144 0 0 0 0.014223-7.708444l-113.706667-85.959111a14.947556 14.947556 0 0 1-1.436445-1.237333c-1.720889-1.621333-9.486222-4.593778-17.066666-4.636445v39.765333a14.222222 14.222222 0 0 1-14.222222 14.222223h-128.298667L282.481778 667.264a14.222222 14.222222 0 0 1-11.107556 5.333333H217.315556z m142.976-186.140444h-0.028445a14.222222 14.222222 0 0 1-11.079111-5.333333L264.533333 375.296h-47.217777c-37.646222 0-68.280889-30.634667-68.280889-68.280889s30.634667-68.280889 68.280889-68.280889h108.117333a14.222222 14.222222 0 0 1 11.107555 5.333334l105.415112 131.797333a14.222222 14.222222 0 0 1-0.028445 17.806222l-70.542222 87.480889a14.307556 14.307556 0 0 1-11.093333 5.304889zM217.315556 267.178667c-21.959111 0-39.836444 17.863111-39.836445 39.836444s17.863111 39.836444 39.836445 39.836445h54.058666a14.222222 14.222222 0 0 1 11.107556 5.333333l77.866666 97.336889 52.252445-64.810667-93.994667-117.532444H217.315556z" fill="" p-id="2295"></path></svg>