<?xml version="1.0" standalone="no"?><!DOCTYPE svg PUBLIC "-//W3C//DTD SVG 1.1//EN" "http://www.w3.org/Graphics/SVG/1.1/DTD/svg11.dtd"><svg class="icon" width="200px" height="200.00px" viewBox="0 0 1024 1024" version="1.1" xmlns="http://www.w3.org/2000/svg"><path fill="#fff" d="M833.562 499.779l-354.564 354.564c-15.281 15.281-15.281 40.058 0 55.34s40.058 15.281 55.34 0l408.327-408.327-408.327-408.327c-15.281-15.282-40.058-15.282-55.34 0-15.281 15.281-15.281 40.058 0 55.34l354.564 351.412zM441.624 500.413l-353.93 353.93c-15.281 15.281-15.281 40.058 0 55.34s40.058 15.281 55.34 0l408.326-408.326-408.326-408.327c-15.281-15.282-40.058-15.282-55.34 0-15.281 15.281-15.281 40.058 0 55.34l353.931 352.047z" /></svg>